<svg id="Group" xmlns="http://www.w3.org/2000/svg" width="44" height="44" viewBox="0 0 44 44">
  <g id="Button_1" data-name="Button 1">
    <rect id="Frame" width="44" height="44" fill="#fff" opacity="0"/>
    <g id="Сгруппировать_483" data-name="Сгруппировать 483" transform="translate(12 12)">
      <circle id="Эллипс_18" data-name="Эллипс 18" cx="11" cy="11" r="11" fill="rgba(235,235,245,0.1)"/>
      <path id="Контур_577" data-name="Контур 577" d="M-4.614-.92A.951.951,0,0,0-4.6.381.946.946,0,0,0-3.3.393L0-2.912,3.3.387A.921.921,0,0,0,4.6.375.927.927,0,0,0,4.608-.92l-3.3-3.3,3.3-3.3A.927.927,0,0,0,4.6-8.818.927.927,0,0,0,3.3-8.83L0-5.531l-3.3-3.3a.951.951,0,0,0-1.3.012.957.957,0,0,0-.012,1.3l3.3,3.3Z" transform="translate(11 15.188)" fill="rgba(235,235,245,0.6)"/>
    </g>
  </g>
</svg>
